Coordinates
version=1
nRows=7
nColumns=40
inDegrees=yes

Units are S.I. units (second, meters, Newtons, ...)
Angles are in degrees.

endheader
time	pelvis_tilt	pelvis_list	pelvis_rotation	pelvis_tx	pelvis_ty	pelvis_tz	hip_flexion_r	hip_adduction_r	hip_rotation_r	knee_angle_r	knee_angle_r_beta	ankle_angle_r	subtalar_angle_r	mtp_angle_r	hip_flexion_l	hip_adduction_l	hip_rotation_l	knee_angle_l	knee_angle_l_beta	ankle_angle_l	subtalar_angle_l	mtp_angle_l	lumbar_extension	lumbar_bending	lumbar_rotation	arm_flex_r	arm_add_r	arm_rot_r	elbow_flex_r	pro_sup_r	wrist_flex_r	wrist_dev_r	arm_flex_l	arm_add_l	arm_rot_l	elbow_flex_l	pro_sup_l	wrist_flex_l	wrist_dev_l
     34.34500000	     -3.93709300	     -4.49449493	     -0.58648040	      0.82447428	      0.92227318	      0.46821470	     20.94923010	      1.55947448	    -13.97000937	     20.98613514	     20.98613514	      6.04032800	     -3.22327765	     -5.97085276	     11.75589223	    -10.15303913	     -4.37213871	     47.23767317	     47.23767317	     11.90902177	    -17.60087370	     -3.64332823	     -9.60606271	      7.47962903	      1.25731935	     -1.33724364	    -13.52763537	     -5.43968666	     29.78359797	     46.52170114	      0.00000000	      0.00000000	      4.64259155	    -12.68476605	     -7.85994796	     51.38919472	     46.79156683	      0.00000000	      0.00000000
     34.35800000	     -3.79634603	     -4.42641380	     -0.19643269	      0.82500112	      0.92349293	      0.46973187	     20.12281658	      1.37320016	    -14.92974213	     20.80256447	     20.80256447	      6.74853506	     -1.83742033	     -5.88956301	     13.83772545	    -10.29261663	     -3.60015265	     50.99955435	     50.99955435	     12.26417145	    -17.70372979	      1.65927253	     -9.61420157	      7.61233237	      1.35269721	      0.00394425	    -13.57527660	     -4.45129054	     30.49621434	     46.41472448	      0.00000000	      0.00000000	      4.78088857	    -12.16625382	     -6.76841977	     47.27694329	     46.65216643	      0.00000000	      0.00000000
     34.37100000	     -3.77066188	     -4.49234938	      0.14908549	      0.82529335	      0.92447621	      0.47141002	     19.35506157	      1.47294359	    -15.51078723	     20.40007678	     20.40007678	      7.22977173	     -1.10253288	     -5.74173377	     16.01068645	    -10.64926903	     -3.05059897	     54.25992765	     54.25992765	     12.51193517	    -17.74064326	      5.94773812	     -9.57078349	      7.83222229	      1.94921750	      1.01224346	    -13.74293020	     -3.58116987	     31.53907128	     46.29840890	      0.00000000	      0.00000000	      4.52871056	    -11.51360783	     -5.86856974	     45.03901776	     46.54154833	      0.00000000	      0.00000000
     34.38400000	     -3.67497095	     -4.62243058	      0.47412190	      0.82543320	      0.92545105	      0.47313562	     18.53333238	      1.69930339	    -15.95588349	     19.97902699	     19.97902699	      7.53156665	     -0.73192075	     -5.77420206	     17.90688346	    -11.18062336	     -2.79083706	     56.66295002	     56.66295002	     11.53342992	    -18.12391842	      6.39905783	     -9.68631716	      8.06268870	      2.29824481	      2.34611043	    -13.81914637	     -3.54019929	     32.16485790	     46.27840933	      0.00000000	      0.00000000	      3.62713568	    -10.89532799	     -5.57463360	     44.25257208	     46.49495954	      0.00000000	      0.00000000
     34.39700000	     -3.64294138	     -4.72606673	      0.84590566	      0.82550569	      0.92640926	      0.47473041	     17.68373957	      1.88136607	    -16.57148825	     19.38532944	     19.38532944	      7.83362653	     -0.01343345	     -5.82389884	     19.81914575	    -11.64877004	     -2.55675517	     58.49178178	     58.49178178	     11.11062267	    -18.25436746	      7.45696371	     -9.66839162	      8.29994521	      2.28212851	      3.91064933	    -13.77140996	     -3.39158257	     32.99371680	     46.24316309	      0.00000000	      0.00000000	      2.66599044	    -10.49663779	     -5.16611643	     42.73025008	     46.42990386	      0.00000000	      0.00000000
     34.41000000	     -3.54458570	     -4.63203324	      1.12156959	      0.82543848	      0.92748280	      0.47613674	     16.87647527	      1.80671030	    -17.20968800	     19.01333880	     19.01333880	      8.20927206	      0.98988856	     -5.89319040	     21.59372746	    -11.78419556	     -2.39130210	     59.83969399	     59.83969399	     12.06842286	    -18.22417866	     11.52298813	     -9.73803317	      8.26628024	      2.84388573	      5.23988840	    -14.07718628	     -2.27143025	     33.81669379	     46.13157202	      0.00000000	      0.00000000	      2.74254268	     -9.91205985	     -4.22052297	     39.39868007	     46.30400165	      0.00000000	      0.00000000
     34.42300000	     -3.48425932	     -4.67727525	      1.41264927	      0.82530128	      0.92841835	      0.47767678	     16.05682677	      2.01600388	    -17.46228455	     18.45800278	     18.45800278	      8.44465895	      1.23501301	     -5.83328441	     23.20392783	    -12.16673564	     -2.38608950	     60.30719974	     60.30719974	     11.87883974	    -18.34944930	     11.75429357	     -9.81625781	      8.34755705	      3.07918857	      6.80770749	    -14.11810442	     -2.22535138	     34.67115242	     46.10333437	      0.00000000	      0.00000000	      1.68964046	     -9.49774625	     -3.97452646	     38.58462653	     46.25731026	      0.00000000	      0.00000000
